<svg width="25" height="25" viewBox="0 0 25 25" fill="none" xmlns="http://www.w3.org/2000/svg">
<mask id="mask0_16_13" style="mask-type:alpha" maskUnits="userSpaceOnUse" x="0" y="0" width="25" height="25">
<rect width="25" height="25" fill="#D9D9D9"/>
</mask>
<g mask="url(#mask0_16_13)">
<path d="M16.6667 8.33333V5.20833H8.33337V8.33333H6.25004V3.125H18.75V8.33333H16.6667ZM18.75 13.0208C19.0452 13.0208 19.2926 12.921 19.4922 12.7214C19.6919 12.5217 19.7917 12.2743 19.7917 11.9792C19.7917 11.684 19.6919 11.4366 19.4922 11.237C19.2926 11.0373 19.0452 10.9375 18.75 10.9375C18.4549 10.9375 18.2075 11.0373 18.0079 11.237C17.8082 11.4366 17.7084 11.684 17.7084 11.9792C17.7084 12.2743 17.8082 12.5217 18.0079 12.7214C18.2075 12.921 18.4549 13.0208 18.75 13.0208ZM16.6667 19.7917V15.625H8.33337V19.7917H16.6667ZM18.75 21.875H6.25004V17.7083H2.08337V11.4583C2.08337 10.5729 2.38719 9.83073 2.99483 9.23177C3.60247 8.63281 4.34032 8.33333 5.20837 8.33333H19.7917C20.6771 8.33333 21.4193 8.63281 22.0183 9.23177C22.6172 9.83073 22.9167 10.5729 22.9167 11.4583V17.7083H18.75V21.875ZM20.8334 15.625V11.4583C20.8334 11.1632 20.7335 10.9158 20.5339 10.7161C20.3342 10.5165 20.0868 10.4167 19.7917 10.4167H5.20837C4.91324 10.4167 4.66584 10.5165 4.46619 10.7161C4.26653 10.9158 4.16671 11.1632 4.16671 11.4583V15.625H6.25004V13.5417H18.75V15.625H20.8334Z" fill="white"/>
</g>
</svg>
